<svg xmlns="http://www.w3.org/2000/svg" width="361" height="175" fill="none" viewBox="0 0 361 175"><path fill="#FF00B2" d="M19.53 124.333c-6.264 0-9.396-5.916-9.396-17.748 0-6.148 1.972-11.078 5.916-14.79 4.06-3.711 9.28-5.567 15.66-5.567h26.795c1.392 0 2.088-.812 2.088-2.436v-15.66c0-1.508-.58-2.32-1.74-2.436H4.915c-2.784 0-4.176-1.392-4.176-4.176v-9.918c0-2.667 1.392-4.002 4.176-4.002h87.52c2.783 0 4.175 1.334 4.175 4.002v9.918c0 2.784-1.392 4.176-4.175 4.176h-9.396c-1.392 0-2.088.812-2.088 2.436v83.866c0 2.668-1.392 4.002-4.176 4.002H64.769c-2.784 0-4.176-1.334-4.176-4.002v-45.065c0-1.624-.696-2.436-2.088-2.436H39.714c-2.204 0-3.886.116-5.046.348-2.9.58-4.35 2.61-4.35 6.09l1.566 9.396c0 2.668-1.276 4.002-3.828 4.002H19.53Zm128.968-28.188V68.132c0-1.508-.58-2.32-1.74-2.436h-23.316c-1.392 0-2.088.812-2.088 2.436v28.013c0 1.624.696 2.436 2.088 2.436h22.968c1.392 0 2.088-.812 2.088-2.436Zm-2.088 20.184h-22.968c-1.392 0-2.088.812-2.088 2.436v9.744c0 2.668-1.391 4.002-4.175 4.002h-12.006c-2.784 0-4.176-1.334-4.176-4.002V68.132c0-1.508-.58-2.32-1.74-2.436h-8.874c-2.784 0-4.176-1.392-4.176-4.176V51.428c0-2.551 1.392-3.828 4.176-3.828h89.956c2.784 0 4.176 1.334 4.176 4.002v9.918c0 2.784-1.392 4.176-4.176 4.176h-9.396c-1.392 0-2.088.812-2.088 2.436v83.866c0 2.668-1.392 4.002-4.176 4.002h-12.005c-2.784 0-4.176-1.334-4.176-4.002v-33.233c0-1.624-.696-2.436-2.088-2.436Zm31.821-68.728h153.986c2.784 0 4.176 1.334 4.176 4.001v9.918c0 2.784-1.392 4.176-4.176 4.176h-9.396c-1.392 0-2.088.812-2.088 2.436v83.866c0 2.668-1.392 4.002-4.175 4.002h-12.006c-2.784 0-4.176-1.334-4.176-4.002v-50.981c0-1.624-.696-2.436-2.088-2.436h-15.486c-8.467 0-12.701 4.06-12.701 12.18v15.834c0 4.524.754 7.656 2.262 9.395 1.624 1.624 4.813 2.494 9.569 2.61h1.566c2.784 0 4.176 1.392 4.176 4.176v9.048c0 2.784-1.392 4.176-4.176 4.176h-6.786c-9.279 0-16.123-2.494-20.531-7.482-4.292-4.988-6.438-12.528-6.438-22.619v-10.44h-41.759l21.402 33.755c.696 1.16 1.044 2.204 1.044 3.132 0 2.436-1.218 3.654-3.654 3.654H213.03c-1.508 0-2.726-.754-3.654-2.262l-19.836-32.189-5.045-6.612v-12.528c0-1.508.464-2.726 1.392-3.654 1.044-.928 2.32-1.392 3.827-1.392h12.876c4.06 0 6.09-2.088 6.09-6.263V68.132c0-1.624-.696-2.436-2.088-2.436h-28.361c-2.784 0-4.176-1.45-4.176-4.35v-9.744c0-2.667 1.392-4.002 4.176-4.002Zm122.145 29.927v-9.396c0-1.508-.58-2.32-1.74-2.436h-67.51c-1.392 0-2.088.812-2.088 2.436v17.226c0 5.683-.87 9.453-2.61 11.31v.695h25.229c3.944-11.6 13.34-17.4 28.187-17.4h18.444c1.392 0 2.088-.811 2.088-2.435ZM319.872 47.6h.87v8.178h-12.18c-7.656-7.191-13.572-13.107-17.748-17.747-4.176-4.756-8.468-10.498-12.875-17.226L268.891 7.06c-.696-1.043-1.044-2.087-1.044-3.131 0-2.204 1.102-3.306 3.306-3.306h14.093c2.436 0 4.292 1.044 5.568 3.132 16.704 27.839 25.23 41.99 25.578 42.455.812.928 1.972 1.391 3.48 1.391Zm40.193 83.345v13.571c0 3.132-1.334 6.728-4.002 10.788l-12.006 17.574c-.812 1.16-1.914 1.74-3.306 1.74-1.972 0-2.958-1.16-2.958-3.48v-40.019c0-2.32 1.16-3.48 3.48-3.48h15.486c2.204 0 3.306 1.102 3.306 3.306Z"/></svg>